PathFileType	4	(X/Y/Z)	S:\OneDrive - The University of Tokyo\ìåëÂéˆã∆\ÉoÉCÉÅÉJ\ë™íË\hirabayashi_2\Trimmed\Trimmed_Trimmed_ShSs3-51P.trc
DataRate	CameraRate	NumFrames	NumMarkers	Units	OrigDataRate	OrigDataStartFrame	OrigNumFrames
200.00	200.00	      4	51	mm	200.00	1074	      1718
Frame#	Time	handRI			handRO			wrRI			wrRO			elbRI			elbRO			shRF			shRU			shRB			handLI			handLO			wrLI			wrLO			elbLI			elbLO			shLF			shLU			shLB			toeR			baRI			baRO			heelR			anRI			anRO			knRI			knRO			troR			toeL			baLI			baLO			heelL			anLI			anLO			knLI			knLO			troL			head			earR			earL			clav			c7			ribR			ribL			xiph			t12			ASISR			ASISL			PSISR			PSISL			ThR			ThL			
		X1	Y1	Z1	X2	Y2	Z2	X3	Y3	Z3	X4	Y4	Z4	X5	Y5	Z5	X6	Y6	Z6	X7	Y7	Z7	X8	Y8	Z8	X9	Y9	Z9	X10	Y10	Z10	X11	Y11	Z11	X12	Y12	Z12	X13	Y13	Z13	X14	Y14	Z14	X15	Y15	Z15	X16	Y16	Z16	X17	Y17	Z17	X18	Y18	Z18	X19	Y19	Z19	X20	Y20	Z20	X21	Y21	Z21	X22	Y22	Z22	X23	Y23	Z23	X24	Y24	Z24	X25	Y25	Z25	X26	Y26	Z26	X27	Y27	Z27	X28	Y28	Z28	X29	Y29	Z29	X30	Y30	Z30	X31	Y31	Z31	X32	Y32	Z32	X33	Y33	Z33	X34	Y34	Z34	X35	Y35	Z35	X36	Y36	Z36	X37	Y37	Z37	X38	Y38	Z38	X39	Y39	Z39	X40	Y40	Z40	X41	Y41	Z41	X42	Y42	Z42	X43	Y43	Z43	X44	Y44	Z44	X45	Y45	Z45	X46	Y46	Z46	X47	Y47	Z47	X48	Y48	Z48	X49	Y49	Z49	X50	Y50	Z50	X51	Y51	Z51	

1074	5.365	-583.56592	1579.20386	1633.79895	-606.17078	1673.37122	1643.38818	-620.73462	1578.52295	1700.37500	-687.20398	1634.49304	1689.45923	-720.82166	1524.32458	1944.46423	-688.41150	1595.32764	1936.36072	-837.98303	1549.97241	2161.80688	-810.48724	1647.45264	2193.52051	-735.52869	1653.94165	2270.71436	-1242.57532	1643.82275	1632.95215	-1207.80103	1740.52075	1661.20313	-1204.61255	1652.79968	1704.72925	-1136.34241	1691.09033	1684.06714	-1108.17566	1576.66748	1944.73267	-1125.34009	1660.30554	1943.90344	-985.87555	1582.08167	2161.79712	-994.01276	1675.72095	2201.53271	-1065.91687	1701.62146	2264.17725	-900.13226	1788.46204	3838.44019	-935.60095	1797.52966	3758.04932	-845.33008	1827.60950	3766.65845	-893.97919	1941.41248	3622.72632	-930.23737	1845.23840	3614.69995	-835.79730	1880.05725	3636.85571	-911.60950	1771.00110	3242.52173	-794.85779	1771.73499	3243.57251	-741.91229	1652.90613	2807.92261	-986.49664	1806.69128	3826.93115	-955.72577	1794.94897	3748.70801	-1029.47083	1858.17310	3756.23633	-936.75031	1945.74780	3612.53516	-939.85730	1855.11377	3611.65283	-1014.90802	1911.49780	3630.98511	-937.35083	1777.13696	3224.13574	-1047.41516	1813.32031	3215.00439	-1089.76062	1721.62122	2789.72949	-893.51434	1801.37512	2038.14612	-806.63403	1647.35168	2088.92236	-986.30347	1662.54675	2074.78003	-914.41473	1491.39795	2215.78613	-904.97577	1672.72070	2213.44312	-758.73334	1522.60559	2541.83691	-1090.41455	1583.66589	2550.18628	-929.02997	1434.67383	2433.11914	-897.99750	1673.52917	2528.09448	-805.98279	1531.21997	2757.08887	-1078.50928	1581.37158	2727.65771	-845.31580	1688.38782	2658.84790	-942.87769	1709.30261	2651.93481	-767.69067	1755.40588	2988.45166	-1055.93018	1807.47058	2977.51538	
1075	5.370	-583.46545	1579.20215	1633.73926	-606.17084	1673.35242	1643.31653	-620.72113	1578.52454	1700.26355	-687.16693	1634.51599	1689.32837	-720.82147	1524.33521	1944.33435	-688.45135	1595.38245	1936.23267	-837.95703	1549.92578	2161.72485	-810.46198	1647.54004	2193.38647	-735.58179	1654.01685	2270.55908	-1242.59241	1643.81787	1632.87073	-1207.82751	1740.52710	1661.12439	-1204.60071	1652.75732	1704.61816	-1136.32544	1691.11682	1683.93030	-1108.09534	1576.64929	1944.55566	-1125.43652	1660.26086	1943.73267	-985.79749	1582.08862	2161.61768	-993.98450	1675.75879	2201.41724	-1065.90991	1701.60938	2263.93945	-900.31641	1788.70142	3838.19116	-934.98352	1799.59338	3760.97632	-845.56097	1827.83020	3766.32666	-894.42365	1941.68762	3622.55933	-928.13354	1844.24329	3615.45605	-836.22064	1880.49402	3636.60864	-911.73285	1771.03223	3242.29639	-794.98584	1771.79358	3243.31519	-741.98737	1652.78821	2807.80151	-986.80707	1806.71362	3826.61621	-956.03302	1795.14746	3748.50757	-1029.69385	1858.37378	3755.93286	-937.18182	1946.05261	3612.33130	-939.79138	1855.61401	3611.44141	-1015.20343	1911.65393	3630.82349	-937.50177	1777.19421	3224.00586	-1047.60388	1813.30579	3214.79834	-1089.76758	1721.56628	2789.49463	-893.51251	1801.49292	2038.06274	-806.65448	1647.36780	2088.85254	-986.22516	1662.55554	2074.60352	-914.33624	1491.36572	2215.59668	-905.00867	1672.69397	2213.23096	-758.76007	1522.59778	2541.76123	-1090.39380	1583.68616	2549.98682	-929.04303	1434.63721	2432.93457	-898.02911	1673.64478	2527.93408	-805.99835	1531.16357	2756.97998	-1078.56299	1581.33264	2727.48584	-845.32794	1688.33789	2658.68677	-942.87677	1709.29285	2651.75122	-767.74231	1755.44739	2988.31104	-1056.01453	1807.43909	2977.26099	
1076	5.375	-583.38812	1579.20203	1633.62073	-606.12848	1673.37976	1643.23242	-620.65363	1578.50598	1700.14624	-687.12158	1634.51257	1689.19067	-720.77405	1524.39331	1944.23425	-688.47906	1595.45190	1936.09924	-837.93799	1549.95154	2161.63843	-810.43134	1647.57349	2193.23340	-735.58258	1654.04700	2270.40747	-1242.61108	1643.81348	1632.79004	-1207.84326	1740.51306	1661.05847	-1204.60901	1652.73718	1704.51245	-1136.39807	1691.11584	1683.77795	-1108.08862	1576.67322	1944.39917	-1125.47241	1660.20569	1943.56592	-985.77454	1582.03027	2161.45703	-993.93353	1675.77393	2201.31421	-1065.88049	1701.53955	2263.80542	-900.62671	1788.71094	3838.37744	-935.40790	1799.89783	3760.71533	-845.93274	1828.14185	3766.04150	-894.93622	1942.13062	3622.27783	-929.99579	1845.09692	3614.46606	-836.55627	1880.91833	3636.28271	-911.89569	1771.18811	3242.11084	-795.15344	1771.92322	3243.05005	-742.04572	1652.69470	2807.71021	-987.03149	1806.94507	3826.47754	-956.23035	1795.23621	3748.22461	-1029.91248	1858.55212	3755.69458	-937.60150	1946.30176	3612.18896	-940.71881	1855.49707	3611.11572	-1015.51624	1911.83423	3630.59497	-937.68616	1777.28674	3223.90430	-1047.77271	1813.30823	3214.60742	-1089.76794	1721.58069	2789.26953	-893.54315	1801.56311	2037.95483	-806.74329	1647.40100	2088.75952	-986.11475	1662.50452	2074.47900	-914.29669	1491.30469	2215.46387	-905.03796	1672.63611	2213.07788	-758.75208	1522.61804	2541.67236	-1090.35144	1583.71167	2549.83032	-929.05658	1434.64490	2432.76221	-898.04407	1673.77246	2527.72852	-806.04132	1531.09338	2756.89258	-1078.56531	1581.24988	2727.30933	-845.38373	1688.27917	2658.62231	-942.90332	1709.26111	2651.67896	-767.82379	1755.48743	2988.15112	-1056.06079	1807.37854	2977.11353	
1077	5.380	-583.32135	1579.20349	1633.57117	-606.11249	1673.36389	1643.13525	-620.56683	1578.51062	1700.03162	-687.07428	1634.51160	1689.05688	-720.72467	1524.45630	1944.12219	-688.46814	1595.46289	1935.99890	-837.89471	1549.93225	2161.54102	-810.42041	1647.65332	2193.14624	-735.60107	1654.09119	2270.28247	-1242.63086	1643.80933	1632.71204	-1207.88953	1740.47998	1660.96399	-1204.63538	1652.67090	1704.41882	-1136.45093	1691.08655	1683.62964	-1108.04041	1576.63684	1944.26868	-1125.49048	1660.16919	1943.39612	-985.73285	1582.02795	2161.31445	-993.92859	1675.80627	2201.14819	-1065.89050	1701.50635	2263.60059	-900.93768	1788.89209	3838.21411	-935.81927	1800.19409	3760.46021	-846.30139	1828.47144	3765.83105	-895.36780	1942.50781	3622.04224	-930.58099	1844.93384	3613.75732	-836.88434	1881.36475	3635.97510	-912.07709	1771.37134	3241.89795	-795.28302	1772.02417	3242.84521	-742.06049	1652.59766	2807.60474	-987.22516	1807.07166	3826.32080	-956.34802	1795.19897	3747.97021	-1030.23315	1858.77075	3755.45410	-937.95532	1946.61609	3611.99561	-940.78241	1855.94666	3610.81909	-1015.79468	1911.90698	3630.40479	-937.99213	1777.51929	3223.80151	-1047.92737	1813.29260	3214.44873	-1089.78882	1721.51794	2789.09717	-893.56635	1801.64050	2037.84790	-806.76050	1647.45654	2088.57935	-986.09540	1662.56482	2074.34570	-914.24866	1491.31079	2215.34692	-905.03082	1672.64380	2212.91846	-758.74011	1522.63843	2541.59668	-1090.30225	1583.77344	2549.71680	-929.02625	1434.64380	2432.60864	-898.05780	1673.87598	2527.52124	-806.08008	1531.02759	2756.81323	-1078.57886	1581.16748	2727.18091	-845.38989	1688.13696	2658.48389	-942.93372	1709.16260	2651.52222	-767.93127	1755.47791	2988.00195	-1056.10266	1807.32678	2976.96289	
